<?xml version="1.0" standalone="no"?>
<!DOCTYPE svg PUBLIC "-//W3C//DTD SVG 20010904//EN"
 "http://www.w3.org/TR/2001/REC-SVG-20010904/DTD/svg10.dtd">
<svg version="1.0" xmlns="http://www.w3.org/2000/svg"
 width="300.000000pt" height="157.000000pt" viewBox="0 0 300.000000 157.000000"
 preserveAspectRatio="xMidYMid meet">
<metadata>
Created by potrace 1.10, written by Peter Selinger 2001-2011
</metadata>
<g transform="translate(0.000000,157.000000) scale(0.100000,-0.100000)"
fill="#000000" stroke="none">
<path d="M2871 1474 c-17 -14 -35 -42 -41 -62 -8 -30 -49 -348 -50 -387 0 -6
16 -19 35 -29 40 -22 51 -46 34 -78 -7 -13 -50 -75 -95 -138 -46 -63 -91 -125
-99 -138 -18 -25 -63 -57 -71 -50 -2 3 28 50 69 104 88 118 167 233 167 242
-1 25 -23 37 -68 37 -85 0 -191 -82 -344 -265 -69 -83 -113 -108 -219 -121
-114 -14 -201 -35 -252 -60 -138 -69 -279 -237 -343 -407 -30 -78 -30 -90 -1
-86 12 2 65 8 117 14 372 45 736 221 1005 487 90 87 184 201 209 251 33 65 56
181 55 281 0 128 -31 395 -48 415 -18 21 -24 20 -60 -10z m49 -121 c37 -290
29 -434 -31 -553 -19 -38 -138 -182 -203 -244 -79 -75 -274 -226 -292 -226 -3
0 -19 -9 -34 -20 -81 -57 -372 -175 -480 -194 -19 -3 -46 -8 -60 -11 -14 -3
-60 -11 -102 -17 -106 -16 -111 -10 -63 84 68 135 183 263 283 316 59 31 160
56 271 68 113 11 138 30 314 227 38 42 88 90 112 106 99 67 162 65 114 -3 -68
-97 -144 -202 -150 -206 -3 -3 -14 -20 -23 -38 -30 -58 17 -95 72 -56 12 8 41
43 64 77 22 34 65 94 93 132 97 130 103 159 49 213 l-36 36 12 105 c21 197 29
242 47 270 21 33 33 16 43 -66z"/>
<path d="M66 1481 c-17 -27 -30 -191 -30 -381 -1 -203 0 -218 21 -261 53 -108
219 -296 368 -416 263 -211 610 -353 931 -380 l76 -6 -7 34 c-20 100 -122 265
-221 360 -102 96 -176 129 -354 153 -166 23 -164 22 -304 183 -135 156 -254
232 -324 207 -54 -19 -43 -48 82 -215 64 -85 116 -157 116 -161 0 -18 -24 -6
-52 25 -50 54 -208 278 -215 305 -8 32 5 53 45 72 17 8 30 21 27 27 -2 7 -11
84 -20 170 -18 176 -28 225 -57 265 -19 28 -70 39 -82 19z m68 -75 c14 -33 26
-123 41 -292 7 -69 6 -72 -25 -105 -49 -53 -40 -92 51 -218 41 -56 82 -114 91
-128 51 -78 106 -111 136 -81 20 20 14 49 -18 92 -17 23 -64 86 -105 140 -94
126 -88 155 21 101 48 -24 115 -86 259 -242 37 -40 85 -80 108 -91 23 -11 87
-25 142 -32 165 -20 248 -55 348 -149 67 -62 121 -136 163 -224 47 -98 46
-101 -23 -94 -247 26 -539 135 -763 287 -108 72 -128 89 -241 200 -140 139
-208 229 -238 316 -18 53 -20 78 -16 229 2 94 7 187 10 209 8 48 13 87 14 104
2 25 31 11 45 -22z"/>
<path d="M1168 1392 l-118 -3 1 -42 c1 -23 4 -32 6 -20 2 12 10 26 16 31 14
12 147 21 147 11 0 -8 -161 -241 -186 -270 -8 -8 -14 -19 -14 -22 0 -4 58 -7
130 -7 l130 0 6 28 c3 15 8 35 11 46 3 12 1 16 -6 12 -6 -4 -11 -13 -11 -20 0
-7 -8 -21 -19 -30 -15 -13 -34 -16 -99 -14 l-80 3 105 149 c57 81 103 149 101
150 -2 0 -56 0 -120 -2z"/>
<path d="M418 1229 c16 -18 16 -146 0 -152 -7 -3 -4 -6 7 -6 18 -1 20 5 18 66
l-3 68 21 -45 c12 -25 26 -56 31 -70 10 -24 12 -22 44 45 l34 70 -3 -68 c-2
-54 1 -67 13 -67 12 0 14 13 12 70 -3 49 1 76 10 87 11 14 10 15 -12 8 -14 -4
-26 -8 -27 -9 0 0 -13 -28 -28 -61 l-27 -60 -24 54 c-13 29 -24 57 -24 62 0 5
-4 9 -9 9 -5 0 -18 3 -28 6 -15 6 -16 4 -5 -7z"/>
<path d="M641 1224 c6 -8 9 -43 7 -84 l-3 -71 55 3 c46 3 55 6 58 23 2 18 2
18 -8 3 -7 -12 -23 -18 -45 -18 -33 0 -35 2 -35 35 0 30 3 35 23 35 13 0 28
-5 35 -12 9 -9 12 -6 12 17 0 23 -3 26 -12 17 -7 -7 -22 -12 -35 -12 -19 0
-23 5 -23 33 0 32 1 33 33 29 17 -3 36 -10 40 -16 5 -7 7 -3 5 9 -3 17 -11 20
-61 21 -45 1 -55 -2 -46 -12z"/>
<path d="M789 1225 c5 -5 8 -43 7 -82 -1 -59 2 -73 14 -73 12 0 15 9 12 40 -2
22 0 40 4 40 5 0 22 -18 37 -40 16 -22 36 -40 46 -40 15 0 11 7 -16 36 l-34
37 20 19 c41 37 17 69 -53 72 -29 1 -42 -2 -37 -9z m76 -35 c0 -18 -6 -26 -22
-28 -20 -3 -23 1 -23 28 0 27 3 31 23 28 16 -2 22 -10 22 -28z"/>
<path d="M950 1230 c8 -5 10 -34 8 -84 -2 -62 0 -76 12 -76 12 0 14 13 12 70
-2 41 1 76 7 84 8 10 4 13 -20 13 -16 0 -25 -3 -19 -7z"/>
<path d="M1331 1224 c6 -8 9 -43 7 -84 -2 -57 0 -70 12 -70 12 0 14 13 12 70
-2 41 1 76 7 84 8 10 4 13 -19 13 -23 0 -27 -3 -19 -13z"/>
<path d="M1408 1227 c9 -11 13 -38 10 -87 -2 -42 1 -70 7 -70 6 0 9 28 8 67
l-3 68 21 -45 c12 -25 26 -56 31 -70 10 -24 12 -23 39 35 30 65 34 80 19 70
-5 -3 -15 -24 -21 -45 -7 -22 -15 -40 -18 -40 -3 0 -17 27 -31 60 -14 33 -28
60 -32 60 -3 0 -15 3 -25 7 -16 6 -16 5 -5 -10z"/>
<path d="M1570 1234 c-22 -6 -22 -164 0 -164 12 0 14 13 12 70 -2 45 1 76 8
85 12 15 9 16 -20 9z"/>
<path d="M1629 1227 c15 -15 14 -130 -1 -145 -9 -9 -8 -12 8 -12 17 0 19 6 16
67 l-2 68 26 -60 c14 -33 29 -64 34 -68 4 -5 18 18 30 50 34 86 42 88 38 10
-2 -54 0 -67 12 -67 12 0 14 14 12 76 -3 56 0 79 10 86 9 7 8 8 -5 4 -10 -3
-22 -6 -27 -6 -4 0 -20 -28 -35 -62 l-27 -63 -28 61 c-19 42 -35 63 -50 67
-17 4 -20 3 -11 -6z"/>
<path d="M1850 1226 c15 -15 13 -143 -2 -149 -7 -3 15 -6 48 -6 49 -1 63 3 68
15 4 9 4 19 1 22 -2 3 -7 -3 -11 -12 -4 -10 -18 -16 -40 -16 -32 0 -34 2 -34
35 0 30 3 35 23 35 13 0 28 -5 35 -12 9 -9 12 -6 12 17 0 23 -3 26 -12 17 -7
-7 -22 -12 -35 -12 -19 0 -23 5 -23 33 0 32 1 33 33 29 17 -3 36 -10 40 -16 5
-7 7 -3 5 9 -3 17 -11 20 -61 21 -40 0 -54 -3 -47 -10z"/>
<path d="M1991 1229 c7 -4 9 -36 7 -83 l-3 -76 48 0 c38 0 53 5 72 25 45 44
24 132 -32 137 -53 4 -101 3 -92 -3z m102 -21 c48 -36 16 -133 -42 -126 -14 2
-25 6 -23 11 1 4 2 34 2 67 0 56 2 60 23 60 13 0 31 -6 40 -12z"/>
<path d="M2351 1224 c6 -8 9 -42 7 -84 -2 -58 0 -70 12 -70 12 0 15 9 12 40
-2 22 0 40 6 40 5 0 21 -18 36 -40 15 -23 34 -40 45 -40 15 0 12 7 -16 36
l-34 37 20 19 c41 37 18 68 -54 73 -37 2 -43 0 -34 -11z m74 -34 c0 -18 -6
-26 -22 -28 -20 -3 -23 1 -23 28 0 27 3 31 23 28 16 -2 22 -10 22 -28z"/>
<path d="M2511 1229 c7 -4 9 -35 7 -83 -3 -76 -3 -76 22 -75 14 0 19 3 13 6
-19 7 -17 127 2 146 13 13 10 15 -20 14 -19 -1 -30 -4 -24 -8z"/>
<path d="M2205 1163 c-15 -38 -31 -74 -37 -80 -8 -10 -5 -13 11 -13 12 0 20 4
17 9 -10 16 5 41 25 41 10 0 19 5 19 11 0 6 -7 9 -15 5 -18 -7 -19 11 -1 43
13 24 14 23 32 -30 10 -30 18 -60 18 -66 -1 -7 9 -13 22 -13 l23 0 -18 33
c-10 17 -27 53 -36 80 -10 26 -21 47 -25 47 -4 0 -20 -30 -35 -67z"/>
<path d="M400 1033 c0 -9 2160 -6 2168 2 3 3 -484 5 -1081 5 -598 0 -1087 -3
-1087 -7z"/>
<path d="M800 932 c-8 -4 -16 -21 -16 -39 -2 -29 1 -33 22 -33 13 0 24 4 24
10 0 5 -7 7 -15 4 -11 -5 -15 1 -15 20 0 16 6 26 15 26 8 0 15 5 15 10 0 11
-8 12 -30 2z"/>
<path d="M1278 933 c-27 -7 -25 -73 1 -73 11 0 22 4 25 9 3 5 -2 8 -11 7 -25
-2 -23 38 2 44 24 7 8 18 -17 13z"/>
<path d="M1538 933 c-13 -3 -18 -14 -18 -39 0 -30 3 -34 25 -34 14 0 25 4 25
10 0 5 -7 7 -15 4 -11 -5 -15 1 -15 19 0 16 6 27 18 29 9 2 13 6 7 9 -5 3 -18
4 -27 2z"/>
<path d="M2375 933 c-17 -3 -20 -10 -17 -38 3 -26 9 -35 23 -35 10 0 19 4 19
10 0 5 -7 7 -15 4 -11 -5 -15 1 -15 20 0 16 6 26 15 26 8 0 15 5 15 10 0 6 -1
9 -2 9 -2 -1 -12 -4 -23 -6z"/>
<path d="M600 921 c0 -5 7 -14 15 -21 20 -17 19 -31 -2 -24 -15 5 -15 4 -3 -4
10 -8 18 -8 27 0 10 8 9 15 -5 34 -17 24 -32 31 -32 15z"/>
<path d="M667 895 c-9 -19 -13 -35 -8 -35 5 0 12 12 16 28 l7 27 10 -27 c5
-16 14 -28 19 -28 8 0 -7 45 -21 63 -3 4 -14 -9 -23 -28z"/>
<path d="M730 895 c0 -19 5 -35 11 -35 6 0 8 7 5 17 -4 9 -1 20 6 25 10 6 10
8 -2 9 -10 0 -8 3 5 9 19 8 19 9 -2 9 -20 1 -23 -4 -23 -34z"/>
<path d="M1200 916 c0 -8 7 -16 15 -20 21 -8 19 -27 -2 -19 -15 5 -16 3 -6 -7
10 -11 15 -11 27 -1 14 12 14 16 -2 37 -19 27 -32 31 -32 10z"/>
<path d="M1321 916 c-9 -11 -10 -20 -1 -35 11 -21 40 -29 40 -11 0 6 -6 9 -12
8 -7 -2 -14 7 -16 19 -2 16 3 23 20 26 21 4 21 4 2 6 -12 0 -27 -5 -33 -13z"/>
<path d="M1380 906 c0 -13 7 -29 15 -36 16 -14 45 -7 45 11 0 8 -4 9 -13 0
-17 -14 -27 -4 -27 26 0 13 -4 23 -10 23 -5 0 -10 -11 -10 -24z"/>
<path d="M1482 906 c-1 -13 5 -29 13 -36 10 -8 15 -9 15 -2 0 6 -4 13 -9 16
-5 3 -7 15 -4 26 3 11 1 20 -4 20 -5 0 -10 -11 -11 -24z"/>
<path d="M1942 895 c0 -19 4 -35 9 -35 9 0 12 18 10 50 0 10 1 11 5 2 3 -6 10
-10 15 -6 14 8 1 24 -21 24 -14 0 -18 -8 -18 -35z"/>
<path d="M2010 895 c0 -30 3 -35 23 -34 16 1 18 2 5 6 -11 3 -18 14 -18 28 0
14 7 25 18 28 13 4 11 5 -5 6 -20 1 -23 -4 -23 -34z"/>
<path d="M2070 895 c0 -28 4 -35 20 -35 11 0 20 4 20 10 0 5 -7 7 -16 3 -14
-5 -16 -1 -12 25 2 18 1 32 -4 32 -4 0 -8 -16 -8 -35z"/>
<path d="M2172 905 c-7 -14 -12 -31 -11 -38 0 -7 6 1 13 17 l13 29 7 -27 c5
-22 26 -38 26 -21 0 8 -30 65 -34 65 -1 0 -8 -11 -14 -25z"/>
<path d="M2230 894 c0 -31 3 -35 23 -32 17 2 23 11 25 36 3 29 1 32 -22 32
-23 0 -26 -4 -26 -36z m36 1 c1 -14 -4 -25 -11 -25 -7 0 -12 11 -11 25 0 14 6
25 11 25 6 0 11 -11 11 -25z"/>
<path d="M2295 895 c0 -30 3 -35 23 -35 12 0 22 4 22 10 0 5 -7 7 -16 3 -14
-5 -16 -1 -12 25 3 19 0 32 -6 32 -6 0 -11 -16 -11 -35z"/>
</g>
</svg>
